<svg width="28" height="28" viewBox="0 0 28 28" fill="none" xmlns="http://www.w3.org/2000/svg">
<rect width="28" height="28" rx="14" fill="#626262"/>
<g clip-path="url(#clip0_33_121)">
<path d="M14 8.26161C15.8702 8.26161 16.0897 8.26995 16.8289 8.30329C17.5125 8.33386 17.8821 8.4478 18.1294 8.54506C18.4573 8.67289 18.6908 8.82295 18.9353 9.06749C19.1798 9.31203 19.3327 9.54545 19.4577 9.87336C19.5522 10.1207 19.6689 10.4903 19.6995 11.1739C19.7328 11.9131 19.7412 12.1326 19.7412 14.0028C19.7412 15.873 19.7328 16.0925 19.6995 16.8317C19.6689 17.5153 19.555 17.8849 19.4577 18.1322C19.3299 18.4601 19.1798 18.6935 18.9353 18.9381C18.6908 19.1826 18.4573 19.3354 18.1294 19.4605C17.8821 19.555 17.5125 19.6717 16.8289 19.7023C16.0897 19.7356 15.8702 19.7439 14 19.7439C12.1298 19.7439 11.9103 19.7356 11.1711 19.7023C10.4875 19.6717 10.1179 19.5578 9.87059 19.4605C9.54268 19.3327 9.30925 19.1826 9.06471 18.9381C8.82017 18.6935 8.66733 18.4601 8.54228 18.1322C8.4478 17.8849 8.33108 17.5153 8.30052 16.8317C8.26717 16.0925 8.25883 15.873 8.25883 14.0028C8.25883 12.1326 8.26717 11.9131 8.30052 11.1739C8.33108 10.4903 8.44502 10.1207 8.54228 9.87336C8.67011 9.54545 8.82017 9.31203 9.06471 9.06749C9.30925 8.82295 9.54268 8.67011 9.87059 8.54506C10.1179 8.45058 10.4875 8.33386 11.1711 8.30329C11.9103 8.26717 12.1326 8.26161 14 8.26161ZM14 7C12.0992 7 11.8603 7.00834 11.1127 7.04168C10.368 7.07503 9.85947 7.19452 9.41485 7.36681C8.95355 7.54466 8.56451 7.78642 8.17547 8.17547C7.78642 8.56451 7.54744 8.95633 7.36681 9.41485C7.19452 9.85947 7.07503 10.368 7.04168 11.1155C7.00834 11.8603 7 12.0992 7 14C7 15.9008 7.00834 16.1397 7.04168 16.8873C7.07503 17.632 7.19452 18.1405 7.36681 18.5879C7.54466 19.0492 7.78642 19.4383 8.17547 19.8273C8.56451 20.2164 8.95633 20.4553 9.41485 20.636C9.85947 20.8083 10.368 20.9277 11.1155 20.9611C11.863 20.9944 12.0992 21.0028 14.0028 21.0028C15.9063 21.0028 16.1425 20.9944 16.89 20.9611C17.6348 20.9277 18.1433 20.8083 18.5907 20.636C19.052 20.4581 19.4411 20.2164 19.8301 19.8273C20.2191 19.4383 20.4581 19.0464 20.6388 18.5879C20.811 18.1433 20.9305 17.6348 20.9639 16.8873C20.9972 16.1397 21.0056 15.9035 21.0056 14C21.0056 12.0965 20.9972 11.8603 20.9639 11.1127C20.9305 10.368 20.811 9.85947 20.6388 9.41207C20.4609 8.95077 20.2191 8.56173 19.8301 8.17269C19.4411 7.78364 19.0492 7.54466 18.5907 7.36403C18.1461 7.19174 17.6376 7.07225 16.89 7.0389C16.1397 7.00834 15.9008 7 14 7Z" fill="white"/>
<path d="M14 8.26161C15.8702 8.26161 16.0897 8.26995 16.8289 8.30329C17.5125 8.33386 17.8821 8.4478 18.1294 8.54506C18.4573 8.67289 18.6908 8.82295 18.9353 9.06749C19.1798 9.31203 19.3327 9.54545 19.4577 9.87336C19.5522 10.1207 19.6689 10.4903 19.6995 11.1739C19.7328 11.9131 19.7412 12.1326 19.7412 14.0028C19.7412 15.873 19.7328 16.0925 19.6995 16.8317C19.6689 17.5153 19.555 17.8849 19.4577 18.1322C19.3299 18.4601 19.1798 18.6935 18.9353 18.9381C18.6908 19.1826 18.4573 19.3354 18.1294 19.4605C17.8821 19.555 17.5125 19.6717 16.8289 19.7023C16.0897 19.7356 15.8702 19.7439 14 19.7439C12.1298 19.7439 11.9103 19.7356 11.1711 19.7023C10.4875 19.6717 10.1179 19.5578 9.87059 19.4605C9.54268 19.3327 9.30925 19.1826 9.06471 18.9381C8.82017 18.6935 8.66733 18.4601 8.54228 18.1322C8.4478 17.8849 8.33108 17.5153 8.30052 16.8317C8.26717 16.0925 8.25883 15.873 8.25883 14.0028C8.25883 12.1326 8.26717 11.9131 8.30052 11.1739C8.33108 10.4903 8.44502 10.1207 8.54228 9.87336C8.67011 9.54545 8.82017 9.31203 9.06471 9.06749C9.30925 8.82295 9.54268 8.67011 9.87059 8.54506C10.1179 8.45058 10.4875 8.33386 11.1711 8.30329C11.9103 8.26717 12.1326 8.26161 14 8.26161Z" fill="white"/>
<path d="M14 10.407C12.0159 10.407 10.4041 12.016 10.4041 14.0029C10.4041 15.9898 12.0131 17.5987 14 17.5987C15.9869 17.5987 17.5959 15.9898 17.5959 14.0029C17.5959 12.016 15.9869 10.407 14 10.407ZM14 16.3343C12.7106 16.3343 11.6657 15.2895 11.6657 14.0001C11.6657 12.7107 12.7106 11.6658 14 11.6658C15.2894 11.6658 16.3343 12.7107 16.3343 14.0001C16.3343 15.2895 15.2894 16.3343 14 16.3343Z" fill="#626262"/>
<path d="M17.7376 11.1017C18.2011 11.1017 18.5768 10.7259 18.5768 10.2624C18.5768 9.79895 18.2011 9.42322 17.7376 9.42322C17.2741 9.42322 16.8984 9.79895 16.8984 10.2624C16.8984 10.7259 17.2741 11.1017 17.7376 11.1017Z" fill="#626262"/>
</g>
<defs>
<clipPath id="clip0_33_121">
<rect width="14" height="14" fill="white" transform="translate(7 7)"/>
</clipPath>
</defs>
</svg>
