<svg width="28" height="28" viewBox="0 0 28 28" fill="none" xmlns="http://www.w3.org/2000/svg">
<rect width="28" height="28" rx="14" fill="#626262"/>
<path d="M19.2833 11.1888C19.2887 11.312 19.2887 11.4296 19.2887 11.5528C19.2941 15.288 16.5498 19.6 11.5312 19.6C10.0511 19.6 8.59789 19.1576 7.35001 18.3288C7.56609 18.3568 7.78218 18.368 7.99826 18.368C9.22454 18.368 10.4184 17.9424 11.3854 17.1528C10.2185 17.1304 9.19213 16.3408 8.83559 15.1872C9.24615 15.2712 9.66751 15.2544 10.0673 15.1368C8.79777 14.8792 7.88482 13.72 7.87941 12.3704C7.87941 12.3592 7.87941 12.348 7.87941 12.3368C8.25756 12.5552 8.68433 12.6784 9.1165 12.6896C7.92263 11.8608 7.54988 10.2088 8.27377 8.91519C9.66211 10.6848 11.7041 11.7544 13.8974 11.872C13.6759 10.892 13.9784 9.86159 14.6861 9.16719C15.7827 8.09759 17.5114 8.15359 18.5486 9.29039C19.159 9.16719 19.7479 8.93199 20.2827 8.60159C20.0774 9.25679 19.6506 9.81119 19.0834 10.164C19.6236 10.0968 20.153 9.94559 20.65 9.72159C20.2827 10.2928 19.8181 10.7856 19.2833 11.1888Z" fill="white"/>
</svg>
