<svg width="28" height="28" viewBox="0 0 28 28" fill="none" xmlns="http://www.w3.org/2000/svg">
<rect width="28" height="28" rx="14" fill="#626262"/>
<g clip-path="url(#clip0_33_123)">
<path d="M20.7116 10.6337C20.5501 10.0341 20.0773 9.56126 19.4776 9.39981C18.3821 9.09998 13.9999 9.09998 13.9999 9.09998C13.9999 9.09998 9.61772 9.09998 8.52217 9.38828C7.93404 9.54973 7.44969 10.0341 7.28824 10.6337C6.99994 11.7293 6.99994 14.0011 6.99994 14.0011C6.99994 14.0011 6.99994 16.2845 7.28824 17.3685C7.44969 17.9681 7.9225 18.441 8.52217 18.6024C9.62925 18.9022 13.9999 18.9022 13.9999 18.9022C13.9999 18.9022 18.3821 18.9022 19.4776 18.6139C20.0773 18.4525 20.5501 17.9797 20.7116 17.38C20.9999 16.2845 20.9999 14.0126 20.9999 14.0126C20.9999 14.0126 21.0114 11.7293 20.7116 10.6337Z" fill="white"/>
<path d="M12.6045 16.1L16.2487 14.0012L12.6045 11.9023V16.1Z" fill="#626262"/>
</g>
<defs>
<clipPath id="clip0_33_123">
<rect width="14" height="14" fill="white" transform="translate(6.99994 7)"/>
</clipPath>
</defs>
</svg>
