<svg width="48" height="48" viewBox="0 0 48 48" fill="none" xmlns="http://www.w3.org/2000/svg">
<path d="M35.108 14.5924C40.01 14.5924 44 18.712 44 23.7753V33.8399C44 38.8908 40.02 43 35.128 43L12.896 43C7.992 43 4 38.8825 4 33.8192V23.7546C4 18.7037 7.982 14.5924 12.876 14.5924H14.756L35.108 14.5924Z" fill="#1C51FE"/>
<path opacity="0.8" d="M25.0924 32.0748L30.9104 26.139C31.5104 25.5255 31.5104 24.5382 30.9064 23.9268C30.3024 23.3173 29.3284 23.3194 28.7284 23.9308L25.5424 27.1811L25.5424 6.5642C25.5424 5.70084 24.8524 5 24.0004 5C23.1504 5 22.4624 5.70084 22.4624 6.5642L22.4624 27.1811L19.2744 23.9308C18.6744 23.3194 17.7004 23.3173 17.0964 23.9268C16.7944 24.2335 16.6424 24.6337 16.6424 25.0359C16.6424 25.4341 16.7944 25.8343 17.0924 26.139L22.9104 32.0748C23.2004 32.3693 23.5924 32.5359 24.0004 32.5359C24.4104 32.5359 24.8024 32.3693 25.0924 32.0748Z" fill="#FF2DD1"/>
</svg>
