<svg width="153" height="31" viewBox="0 0 153 31" fill="none" xmlns="http://www.w3.org/2000/svg">
<g clip-path="url(#clip0_18_146)">
<path d="M9.79708 13.1056L15.7014 7.28142L21.6081 13.1103L25.0417 9.71962L15.7014 0.499969L6.36108 9.71725L9.79708 13.1056Z" fill="#A9A9A9"/>
<path d="M0.498779 15.5005L3.93352 12.111L7.36825 15.5005L3.93351 18.89L0.498779 15.5005Z" fill="#A9A9A9"/>
<path d="M9.79712 17.8944L15.7015 23.7209L21.6082 17.892L25.0442 21.278L25.0418 21.2804L15.7015 30.5L6.36113 21.2851L6.35632 21.2804L9.79712 17.8944Z" fill="#A9A9A9"/>
<path d="M24.0288 15.5013L27.4635 12.1118L30.8983 15.5013L27.4635 18.8908L24.0288 15.5013Z" fill="#A9A9A9"/>
<path d="M19.1854 15.4987L15.7013 12.0583L13.1249 14.6007L12.8272 14.8922L12.2173 15.494L12.2125 15.4987L12.2173 15.5059L15.7013 18.9416L19.1854 15.5011L19.1878 15.4987H19.1854Z" fill="#A9A9A9"/>
<path d="M36.2573 7.76959H43.7296C45.5832 7.76959 46.9855 8.24349 47.9363 9.19128C48.2946 9.54139 48.577 9.95967 48.7664 10.4208C48.9559 10.8818 49.0484 11.3761 49.0384 11.8735V11.9186C49.0449 12.3261 48.9874 12.7321 48.868 13.1223C48.7616 13.4581 48.6072 13.7773 48.4094 14.07C48.225 14.3461 48.0018 14.595 47.7466 14.8093C47.4973 15.0211 47.2242 15.2039 46.9327 15.3543C47.7734 15.6433 48.5295 16.1315 49.1345 16.776C49.6691 17.3763 49.9365 18.2056 49.9365 19.2639V19.309C49.9517 19.9699 49.8059 20.6249 49.5115 21.2188C49.2262 21.766 48.8079 22.2349 48.2941 22.5836C47.7132 22.9679 47.0664 23.2449 46.3852 23.4011C45.5759 23.5905 44.7462 23.682 43.9145 23.6736H36.2573V7.76959ZM42.9804 14.2004C43.6269 14.2312 44.2703 14.0939 44.8461 13.8023C45.0707 13.6729 45.254 13.4839 45.3754 13.257C45.4967 13.03 45.5513 12.774 45.5328 12.518V12.473C45.5447 12.2371 45.4962 12.0021 45.3917 11.7897C45.2872 11.5772 45.1301 11.3942 44.9349 11.2575C44.5364 10.9779 43.9609 10.8381 43.2085 10.8381H39.7125V14.2004H42.9804ZM43.9241 20.6098C44.5682 20.6454 45.2093 20.5 45.7729 20.1904C45.9925 20.0512 46.1703 19.8564 46.2877 19.6264C46.4051 19.3963 46.4578 19.1395 46.4404 18.8825V18.8374C46.4491 18.5932 46.3969 18.3505 46.2885 18.1308C46.1801 17.911 46.0187 17.7208 45.8186 17.5769C45.4056 17.2609 44.7381 17.103 43.816 17.103H39.7125V20.6098H43.9241Z" fill="#A9A9A9"/>
<path d="M54.3881 7.76959H57.9346V23.6783H54.3881V7.76959Z" fill="#A9A9A9"/>
<path d="M63.3011 7.76959H66.5714L74.1301 17.5603V7.76959H77.6309V23.6783H74.6127L66.8067 13.5653V23.6783H63.3011V7.76959Z" fill="#A9A9A9"/>
<path d="M88.3687 7.65585H91.6342L98.5422 23.6783H94.8397L93.3654 20.1098H86.5487L85.0744 23.6783H81.4583L88.3687 7.65585ZM92.1 17.02L89.9535 11.8593L87.8165 17.02H92.1Z" fill="#A9A9A9"/>
<path d="M102.377 7.76959H105.647L113.201 17.5603V7.76959H116.702V23.6783H113.684L105.878 13.5653V23.6783H102.377V7.76959Z" fill="#A9A9A9"/>
<path d="M129.466 23.9579C128.336 23.9674 127.215 23.7514 126.172 23.3228C125.189 22.9225 124.298 22.3322 123.551 21.5867C122.803 20.8412 122.214 19.9555 121.819 18.9819C121.401 17.9636 121.19 16.8745 121.197 15.776V15.731C121.178 13.5659 122.022 11.4802 123.547 9.92342C124.298 9.163 125.196 8.56013 126.189 8.15105C127.268 7.70976 128.427 7.48968 129.596 7.50418C130.287 7.49909 130.977 7.5602 131.656 7.68663C132.237 7.79507 132.805 7.96262 133.351 8.18659C133.847 8.39241 134.318 8.65146 134.756 8.95904C135.183 9.25903 135.585 9.59348 135.956 9.95896L133.702 12.5275C133.126 12.003 132.479 11.5589 131.781 11.2077C131.095 10.8839 130.342 10.7217 129.581 10.7338C128.949 10.7271 128.322 10.8534 127.742 11.1042C127.162 11.3551 126.644 11.7247 126.22 12.1886C125.8 12.6514 125.471 13.1874 125.25 13.7691C125.018 14.3839 124.902 15.035 124.906 15.6907V15.7358C124.904 16.3906 125.02 17.0406 125.25 17.655C125.468 18.2389 125.794 18.7779 126.21 19.245C126.631 19.7146 127.148 20.0897 127.728 20.3448C128.308 20.5999 128.937 20.7291 129.572 20.7235C130.38 20.7487 131.183 20.5769 131.908 20.2236C132.599 19.8522 133.237 19.3933 133.807 18.8587L136.064 21.1097C135.666 21.5366 135.235 21.9327 134.775 22.2945C134.323 22.647 133.833 22.9482 133.313 23.1925C132.759 23.4499 132.175 23.6401 131.574 23.7588C130.88 23.8961 130.174 23.9628 129.466 23.9579V23.9579Z" fill="#A9A9A9"/>
<path d="M140.25 7.76959H152.382V10.8831H143.738V14.1103H151.35V17.2238H143.75V20.5648H152.502V23.6783H140.257L140.25 7.76959Z" fill="#A9A9A9"/>
</g>
<defs>
<clipPath id="clip0_18_146">
<rect width="152" height="30" fill="white" transform="translate(0.5 0.5)"/>
</clipPath>
</defs>
</svg>
