<svg width="124" height="33" viewBox="0 0 124 33" fill="none" xmlns="http://www.w3.org/2000/svg">
<path d="M16.9943 33C26.2419 33 33.7386 25.6127 33.7386 16.5C33.7386 7.3873 26.2419 0 16.9943 0C7.74667 0 0.25 7.3873 0.25 16.5C0.25 25.6127 7.74667 33 16.9943 33Z" fill="#A9A9A9"/>
<path d="M18.7778 18.0227V18.02C18.662 18.028 18.0644 18.0625 16.7345 18.0625C15.6712 18.0625 14.9255 18.0333 14.6617 18.02V18.0227C10.5725 17.8449 7.52248 17.1446 7.52248 16.3037C7.52248 15.4654 10.5752 14.7625 14.6617 14.5847V17.325C14.9282 17.3436 15.6954 17.3887 16.7534 17.3887C18.024 17.3887 18.6593 17.3356 18.7778 17.325V14.5874C22.8588 14.7678 25.9008 15.4681 25.9008 16.3064C25.9008 17.1446 22.8562 17.8449 18.7778 18.0253V18.0227ZM18.7778 14.3035V11.8524H24.4714V8.11472H8.97078V11.8524H14.6644V14.3035C10.0368 14.5131 6.55875 15.415 6.55875 16.4974C6.55875 17.5797 10.0395 18.4816 14.6644 18.6938V26.5512H18.7805V18.6938C23.3999 18.4843 26.8726 17.5823 26.8726 16.5C26.8726 15.4203 23.3999 14.5158 18.7805 14.3062" fill="#F8F8FC"/>
<path d="M47.96 9.13602V13.0992H51.8688V16.0729H47.9331V22.1026C47.9331 23.4343 48.6788 24.0842 49.7717 24.0842C50.3182 24.0842 50.9508 23.9145 51.4677 23.6598L52.4449 26.6043C51.4408 26.9996 50.6063 27.1694 49.5429 27.1986C46.4687 27.3126 44.4577 25.5857 44.4577 22.1026V16.0729H41.8142V13.0992H44.4577V9.50475L47.96 9.13602ZM115.349 12.9135L115.607 14.5264C116.7 12.7995 118.165 12.5448 119.602 12.5448C121.067 12.5448 122.475 13.1098 123.25 13.8738L121.67 16.8741C120.951 16.2799 120.291 15.9668 119.142 15.9668C117.303 15.9668 115.607 16.9298 115.607 19.5056V26.867H112.102V12.9082L115.349 12.9135ZM106.759 18.2641C106.53 16.4523 105.092 15.5451 103.082 15.5451C101.186 15.5451 99.633 16.4523 99.1162 18.2641H106.759ZM99.0596 21.1238C99.2885 22.8507 100.812 24.0975 103.283 24.0975C104.576 24.0975 106.272 23.6147 107.076 22.795L109.316 24.9756C107.822 26.5035 105.38 27.241 103.224 27.241C98.3409 27.241 95.4362 24.2673 95.4362 19.7947C95.4362 15.5477 98.3678 12.4891 102.966 12.4891C107.706 12.4891 110.668 15.3779 110.121 21.1238H99.0596ZM83.6022 7.05096V14.8076C84.8674 13.1947 86.418 12.7119 88.0278 12.7119C92.0497 12.7119 93.8318 15.4018 93.8318 19.5083V26.8696H90.3268V19.5374C90.3268 16.9881 88.9754 15.9138 87.1071 15.9138C85.037 15.9138 83.6022 17.6407 83.6022 19.7364V26.8723H80.0972V7.05362L83.6022 7.05096ZM74.2932 8.97686V12.9401H78.202V15.9138H74.2663V21.9435C74.2663 23.2751 75.0147 23.9251 76.1049 23.9251C76.6514 23.9251 77.284 23.7553 77.8009 23.5006L78.7781 26.4452C77.774 26.8404 76.9394 27.0102 75.8761 27.0394C72.8018 27.1535 70.7909 25.4239 70.7909 21.9435V15.9138H68.1474V12.9401H70.7909V9.34559L74.2932 8.97686ZM64.6101 18.2641C64.3813 16.4523 62.9437 15.5451 60.9328 15.5451C59.0376 15.5451 57.4843 16.4523 56.9675 18.2641H64.6101ZM56.9109 21.1238C57.1398 22.8507 58.6634 24.0975 61.1347 24.0975C62.4269 24.0975 64.1228 23.6147 64.9277 22.795L67.1675 24.9756C65.6734 26.5035 63.2318 27.241 61.0755 27.241C56.1895 27.241 53.2875 24.2673 53.2875 19.7947C53.2875 15.5477 56.2191 12.4891 60.8143 12.4891C65.555 12.4891 68.5135 15.3779 67.9697 21.1238H56.9109Z" fill="#A9A9A9"/>
</svg>
