<svg width="131" height="21" viewBox="0 0 131 21" fill="none" xmlns="http://www.w3.org/2000/svg">
<g clip-path="url(#clip0_18_173)">
<path d="M11.575 0.393616H23.746C23.7386 0.553394 23.683 0.707275 23.5864 0.835269C23.1743 1.5366 22.8035 2.26655 22.3987 2.96788C21.826 3.97489 21.2904 5.0003 20.7084 6.00323C20.3397 6.725 19.9235 7.42429 19.53 8.13379C17.1651 8.13379 14.8001 8.13379 12.4351 8.13379C12.3115 8.13379 12.1889 8.13993 12.0653 8.14708C11.9623 8.41698 11.7913 8.65315 11.6533 8.90669C11.473 9.19703 11.3268 9.5068 11.1486 9.79715C10.9601 10.1877 10.6995 10.5373 10.5099 10.9268C10.1185 11.5863 9.75284 12.2559 9.36966 12.9225C8.97001 13.604 8.57928 14.2951 8.19747 14.9958C8.03589 15.2441 7.88703 15.5004 7.75146 15.7636C6.95112 17.1458 6.17652 18.5402 5.37515 19.9214C5.30717 20.0699 5.21764 20.2077 5.10939 20.3304C3.73943 20.3212 2.36947 20.3304 0.999511 20.3304C0.830779 20.3336 0.663048 20.3569 0.499939 20.3999C0.499939 20.0237 0.75333 19.7221 0.924318 19.4062C1.13033 18.9819 1.40535 18.5883 1.61239 18.163C3.25428 15.2473 4.87866 12.3213 6.51541 9.40355C6.88622 8.76969 7.20451 8.12255 7.57738 7.50096C8.04296 6.68309 8.47661 5.84681 8.96177 5.03813C9.11627 4.69974 9.32434 4.38996 9.4943 4.05975C10.0979 2.99344 10.6902 1.921 11.2917 0.854694C11.3631 0.688167 11.4585 0.532844 11.575 0.393616Z" fill="#A9A9A9"/>
<path d="M25.6784 4.68643C26.4891 3.2807 27.2719 1.85964 28.0939 0.460052H32.4901C32.5542 0.463268 32.6177 0.473206 32.6796 0.489701C32.5334 0.709505 32.4108 0.9426 32.282 1.17161C31.2218 3.06022 30.1646 4.94985 29.1105 6.84051C28.6676 7.61034 28.2556 8.39754 27.8065 9.16328L27.7622 9.17862L27.754 9.27472C25.687 12.9552 23.6269 16.6383 21.5737 20.3242C17.538 20.3283 13.5019 20.3283 9.46548 20.3242C9.69518 19.8478 9.96712 19.3929 10.2226 18.9298C11.3721 16.8319 12.5515 14.7524 13.6846 12.6546C16.1642 12.6505 18.6439 12.6505 21.1235 12.6546C22.6552 10.0067 24.1539 7.33839 25.6743 4.68643H25.6784Z" fill="#A9A9A9"/>
<path d="M71.0488 0.405884V20.5665H74.5684V6.38967L80.9887 15.7268L87.3575 6.16782V20.5665H90.9802V0.405884H87.0835L81.0145 9.7123L74.8775 0.405884H71.0488Z" fill="#A9A9A9"/>
<path d="M54.5856 5.6055H56.8857V20.7362H54.5856V5.6055Z" fill="#A9A9A9"/>
<path d="M54.3878 0H57.0835V2.53848H54.3878V0Z" fill="#A9A9A9"/>
<path d="M61.2809 1.26974H63.684V5.60551H68.4222V7.7187H63.684V16.7072C63.6798 17.0535 63.7608 17.3956 63.9198 17.704C64.3267 18.4707 65.4319 19.3806 68.4222 18.3174V20.2762C68.4222 20.2762 65.6925 21.8097 63.2204 20.4132C63.2204 20.4132 61.9926 19.8959 61.4766 18.1497C61.3425 17.6819 61.2766 17.1975 61.2809 16.7113V7.68496L59.2548 7.7187V5.60551H61.2973L61.2809 1.26974Z" fill="#A9A9A9"/>
<path d="M94.6884 0.405884V20.7025H109.967V17.431H98.4141V12.0463H108.594V8.82592H98.3966V3.69784H109.848V0.405884H94.6884Z" fill="#A9A9A9"/>
<path d="M111.401 0.405884H115.753L120.749 7.53163L125.705 0.405884H130.057L122.95 10.3042L130.5 20.6851H125.916L120.766 13.1034L115.367 20.7025H111.015L118.457 10.3942L111.401 0.405884Z" fill="#A9A9A9"/>
<path d="M47.5463 10.1723C47.5463 10.1723 50.9115 8.91175 50.7055 5.28243C50.7055 5.28243 50.6777 1.79214 46.7182 0.714587C46.0598 0.539511 45.3808 0.452862 44.6993 0.456956H35.2033L35.229 20.6176H45.4522C45.4522 20.6176 51.4347 20.4898 51.856 15.1992C51.856 15.1992 52.2845 11.5014 47.5463 10.1723ZM37.6579 2.53845H43.7187C48.4734 2.52209 48.3364 5.84472 48.3364 5.84472C48.4074 9.63558 44.0442 9.5589 44.0442 9.5589H37.6579V2.53845ZM45.0742 18.487H37.6579V11.4676H44.7487C49.5034 11.4502 49.3664 14.7729 49.3664 14.7729C49.4375 18.5637 45.0742 18.487 45.0742 18.487Z" fill="#A9A9A9"/>
</g>
<defs>
<clipPath id="clip0_18_173">
<rect width="130" height="21" fill="white" transform="translate(0.5)"/>
</clipPath>
</defs>
</svg>
