<svg width="125" height="27" viewBox="0 0 125 27" fill="none" xmlns="http://www.w3.org/2000/svg">
<path d="M25.7152 16.6482C23.9713 23.5941 16.9119 27.8398 9.88735 26.1023C2.91034 24.3662 -1.35439 17.3382 0.390909 10.345C2.13481 3.39916 9.19426 -0.846552 16.2188 0.890962C23.1958 2.62708 27.4605 9.65504 25.7152 16.6482Z" fill="#A9A9A9"/>
<path d="M18.8031 11.6331C19.0616 9.89701 17.7369 8.96217 15.9287 8.35286L16.51 6.00464L15.0889 5.65129L14.5076 7.93274L13.345 7.67538L13.9263 5.39393L12.5052 5.04059L11.9239 7.38881L11.0198 7.16345L9.06348 6.68073L8.67642 8.19149L9.71046 8.44885C9.91111 8.47161 10.0947 8.57209 10.2215 8.72854C10.3483 8.885 10.4082 9.08486 10.3882 9.28491L9.71046 11.9559C9.7426 11.9559 9.80828 11.9879 9.87255 11.9879C9.84041 11.9879 9.77474 11.9559 9.71046 11.9559L8.77423 15.6869C8.70995 15.8482 8.51572 16.1376 8.12865 16.0402C8.12865 16.0722 7.09461 15.7829 7.09461 15.7829L6.39593 17.4244L8.26839 17.8751L9.30243 18.1325L8.72113 20.4974L10.1422 20.8507L10.7235 18.5025L11.8414 18.7919L11.2601 21.1401L12.6812 21.4934L13.2625 19.1285C15.7177 19.5792 17.5245 19.4179 18.3014 17.199C18.9163 15.4323 18.2693 14.4168 16.9767 13.7254C17.9465 13.5306 18.6256 12.9213 18.8184 11.6345L18.8031 11.6331ZM15.5402 16.2322C15.0875 17.9989 12.1167 17.0363 11.1469 16.8109L11.9225 13.66C12.8922 13.8854 15.993 14.3556 15.5556 16.2336L15.5402 16.2322ZM15.993 11.6331C15.6059 13.2413 13.0865 12.4372 12.2788 12.2118L12.9775 9.35029C13.7852 9.57566 16.401 9.929 15.9818 11.6317L15.993 11.6331Z" fill="#F8F8FC"/>
<path d="M38.2488 8.35008C39.3149 8.35008 40.2051 8.54484 40.9946 8.89679C41.7701 9.28213 42.4157 9.76485 42.9006 10.4075C43.4176 11.0502 43.7725 11.7903 44.0184 12.6584C44.2557 13.5612 44.375 14.4907 44.3734 15.4239C44.379 16.8909 44.0936 18.3446 43.5336 19.7016C43.0052 21.0073 42.2263 22.198 41.2405 23.2072C40.2611 24.2055 39.0991 25.0082 37.817 25.5721C36.4617 26.1582 34.9977 26.454 33.5201 26.4402H32.4861C32.0012 26.4402 31.4199 26.3762 30.7743 26.2788L28.7397 25.8935C28.0411 25.7321 27.3508 25.4761 26.7052 25.1979L32.4232 1.30407L37.5263 0.5L35.4918 8.99C35.9445 8.79524 36.3637 8.63665 36.8165 8.53927C37.2785 8.40748 37.757 8.3419 38.2376 8.34452L38.2488 8.35008ZM33.9533 22.4365C34.7288 22.4365 35.4387 22.2418 36.1192 21.8898C36.8035 21.505 37.4066 20.992 37.8952 20.3791C38.3801 19.767 38.7672 19.0603 39.0578 18.2562C39.3485 17.4522 39.477 16.6481 39.477 15.78C39.477 14.7186 39.3149 13.9159 38.96 13.3039C38.6051 12.7251 37.9581 12.4038 37.0219 12.4038C36.7005 12.4038 36.3232 12.4678 35.8271 12.5652C35.3311 12.6625 34.8909 12.9185 34.5024 13.2607L32.3365 22.2654C32.4651 22.2974 32.595 22.2974 32.6915 22.3294C32.7879 22.3614 32.8871 22.3614 33.0129 22.3934C33.1107 22.3934 33.2714 22.4254 33.3999 22.4254H33.9491L33.9533 22.4365ZM49.7155 26.0535H44.8247L48.9469 8.73959H53.8572L49.7155 26.0535ZM52.0742 6.63066C51.4085 6.63949 50.7594 6.42375 50.2325 6.01857C49.6833 5.60123 49.3941 4.98914 49.3941 4.15447C49.3941 3.70375 49.4919 3.25441 49.6847 2.86768C49.8645 2.47118 50.1166 2.11129 50.4281 1.80626C50.7496 1.52275 51.1083 1.28407 51.4943 1.09679C51.9135 0.935421 52.3327 0.839432 52.7869 0.839432C53.4526 0.830603 54.1017 1.04634 54.6286 1.45152C55.1777 1.86886 55.467 2.48095 55.467 3.31562C55.467 3.76635 55.3692 4.21568 55.1763 4.60241C54.9966 4.99891 54.7445 5.3588 54.433 5.66383C54.1423 5.95318 53.7552 6.17854 53.3668 6.35939C52.9783 6.54024 52.5591 6.61675 52.0742 6.61675V6.63066ZM58.1471 4.44104L63.2838 3.63697L62.0234 8.75072H67.515L66.5131 12.785H61.0536L59.6004 18.8308C59.4824 19.2946 59.4067 19.7681 59.374 20.2455C59.3433 20.6949 59.4061 21.0496 59.5361 21.3584C59.5992 21.5227 59.6947 21.6728 59.8168 21.7998C59.9389 21.9269 60.0853 22.0285 60.2474 22.0985C60.6023 22.2599 61.0858 22.3559 61.7006 22.3559C62.2176 22.3559 62.7347 22.2919 63.2377 22.1945C63.7445 22.0999 64.2417 21.9597 64.7231 21.7758L65.078 25.5387C64.3802 25.7847 63.6681 25.9886 62.9457 26.1494C62.1701 26.3442 61.266 26.4068 60.1998 26.4068C58.6823 26.4068 57.5169 26.1814 56.6785 25.7321C55.8401 25.2828 55.2574 24.6707 54.9039 23.8986C54.5503 23.1265 54.3868 22.2265 54.4511 21.2277C54.4833 20.2302 54.6467 19.1688 54.9039 18.0281L58.1471 4.44104ZM67.2886 19.1382C67.2909 17.7047 67.5313 16.2814 67.9999 14.9259C68.4615 13.6581 69.1631 12.4903 70.0666 11.4857C70.9707 10.4882 72.069 9.71894 73.3616 9.13745C74.6541 8.55596 76.0752 8.2694 77.6584 8.2694C78.6603 8.2694 79.5309 8.36678 80.3078 8.55875C81.0848 8.75072 81.7932 8.97608 82.4402 9.29882L80.7606 13.1244C80.3078 12.9296 79.8565 12.8044 79.4051 12.6417C78.9202 12.4803 78.3389 12.4163 77.6612 12.4163C76.0123 12.4163 74.7547 12.963 73.785 14.0884C72.8152 15.2139 72.3317 16.6926 72.3317 18.5901C72.3317 19.703 72.5902 20.6156 73.0751 21.2917C73.56 21.9872 74.4641 22.3211 75.758 22.3211C76.3772 22.3238 76.9948 22.259 77.5997 22.1277C78.1407 22.0133 78.6704 21.8517 79.183 21.645L79.5379 25.5679L77.5033 26.2106C76.7599 26.4054 75.8544 26.5 74.8204 26.5C73.465 26.5 72.301 26.3052 71.3647 25.9213C70.4728 25.5579 69.6687 25.0098 69.006 24.3132C68.3864 23.6441 67.9327 22.8399 67.6813 21.965C67.4196 21.0445 67.2893 20.092 67.2942 19.1354L67.2886 19.1382ZM88.9952 26.4903C87.8326 26.4903 86.7986 26.2955 85.9587 25.9755C85.0868 25.6222 84.3755 25.1409 83.8264 24.4968C83.2637 23.8349 82.8356 23.0705 82.566 22.246C82.2753 21.3779 82.1467 20.4125 82.1467 19.3844C82.1467 18.0656 82.3731 16.7469 82.7923 15.4295C83.1984 14.1414 83.845 12.9411 84.6983 11.8919C85.5367 10.8304 86.5708 9.96239 87.7669 9.3183C88.9617 8.64361 90.352 8.32087 91.9338 8.32087C92.9684 8.3149 93.996 8.48909 94.9703 8.83558C95.8423 9.18892 96.5535 9.67025 97.1027 10.3143C97.6653 10.9762 98.0934 11.7407 98.3631 12.5652C98.6537 13.4332 98.7823 14.3987 98.7823 15.4267C98.7823 16.7455 98.5867 18.0643 98.1675 19.3816C97.7483 20.699 97.1334 21.8898 96.3257 22.9193C95.5181 23.9807 94.484 24.8167 93.2571 25.4928C92.0303 26.1689 90.6077 26.4903 88.9952 26.4903ZM91.4504 12.4052C90.7665 12.4053 90.0999 12.6189 89.5444 13.0159C88.9952 13.4332 88.5425 13.9479 88.1554 14.592C87.7683 15.2361 87.5098 15.9108 87.317 16.6829C87.1241 17.455 87.0263 18.1616 87.0263 18.8391C87.0263 19.9325 87.2219 20.7867 87.5433 21.4127C87.8983 22.0248 88.5453 22.3447 89.4493 22.3447C90.1927 22.3447 90.8048 22.15 91.3553 21.7326C91.9059 21.3153 92.3572 20.8006 92.7443 20.1565C93.1314 19.5124 93.3899 18.8377 93.5827 18.0657C93.7712 17.3621 93.8689 16.6375 93.8734 15.9094C93.8734 14.816 93.7113 13.9619 93.3564 13.3358C93.0014 12.7098 92.3544 12.4038 91.4504 12.4038V12.4052ZM104.115 26.0381H99.2239L103.36 8.73681H108.27L104.115 26.0381ZM106.473 6.61536C105.808 6.62418 105.159 6.40845 104.632 6.00327C104.082 5.58593 103.793 4.97384 103.793 4.13917C103.793 3.68844 103.891 3.23911 104.084 2.85238C104.264 2.45588 104.516 2.09599 104.827 1.79096C105.149 1.50745 105.507 1.26877 105.893 1.08149C106.313 0.920119 106.732 0.82413 107.186 0.82413C107.852 0.815301 108.501 1.03104 109.028 1.43622C109.577 1.85356 109.866 2.46565 109.866 3.30032C109.866 3.75104 109.768 4.20037 109.575 4.5871C109.396 4.98361 109.144 5.3435 108.832 5.64853C108.511 5.93204 108.152 6.17072 107.766 6.358C107.377 6.55276 106.958 6.61536 106.473 6.61536ZM111.8 9.50888L113.027 9.12354L114.544 8.7382C115.162 8.60061 115.788 8.50395 116.418 8.44885L118.777 8.32087C121.362 8.32087 123.137 9.06094 124.107 10.5717C125.076 12.0505 125.269 14.1093 124.624 16.6815L122.363 26.0075H117.452L119.618 16.8749L119.94 15.2027C120.004 14.656 120.004 14.2053 119.908 13.788C119.828 13.3934 119.61 13.0399 119.293 12.7905C118.969 12.5332 118.485 12.4052 117.807 12.4052C117.162 12.4052 116.515 12.4692 115.869 12.5999L112.655 25.9783H107.745L111.8 9.50888Z" fill="#A9A9A9"/>
</svg>
