<svg width="222" height="39" viewBox="0 0 222 39" fill="none" xmlns="http://www.w3.org/2000/svg">
<path d="M7.21732 30.1767H0L9.37438 2.39276H18.3146L27.689 30.1767H20.4717L13.9463 9.39302H13.7292L7.21732 30.1767ZM6.25411 19.2422H21.3399V24.3432H6.25411V19.2422Z" fill="#1C51FE"/>
<path d="M28.5792 30.1767V9.33875H34.8876V13.1645H35.1183C35.5524 11.8983 36.285 10.8989 37.316 10.1663C38.3471 9.43372 39.5771 9.06743 41.0061 9.06743C42.4532 9.06743 43.6922 9.43824 44.7233 10.1799C45.7543 10.9215 46.41 11.9164 46.6904 13.1645H46.9075C47.2964 11.9254 48.0561 10.9351 49.1866 10.1934C50.3171 9.44276 51.6512 9.06743 53.1887 9.06743C55.1603 9.06743 56.7612 9.70053 57.9912 10.9667C59.2212 12.2239 59.8362 13.9513 59.8362 16.1491V30.1767H53.2023V17.6685C53.2023 16.6284 52.9355 15.8371 52.4018 15.2944C51.8682 14.7427 51.1763 14.4669 50.3262 14.4669C49.4127 14.4669 48.6937 14.7653 48.1691 15.3622C47.6536 15.9501 47.3958 16.7415 47.3958 17.7364V30.1767H41.0196V17.6007C41.0196 16.633 40.7574 15.8687 40.2328 15.308C39.7082 14.7472 39.0163 14.4669 38.1571 14.4669C37.5783 14.4669 37.0673 14.607 36.6241 14.8874C36.181 15.1587 35.8327 15.5476 35.5795 16.0541C35.3353 16.5606 35.2132 17.1575 35.2132 17.8449V30.1767H28.5792Z" fill="#1C51FE"/>
<path d="M67.7199 30.5295C66.3904 30.5295 65.2102 30.3079 64.1791 29.8647C63.1571 29.4125 62.3476 28.7342 61.7507 27.8298C61.1628 26.9163 60.8689 25.7722 60.8689 24.3975C60.8689 23.2398 61.0724 22.263 61.4794 21.4671C61.8864 20.6712 62.4471 20.0246 63.1616 19.5271C63.8761 19.0297 64.6992 18.6543 65.6307 18.4011C66.5623 18.1388 67.5571 17.9625 68.6153 17.872C69.8001 17.7635 70.7543 17.6504 71.4778 17.5329C72.2014 17.4062 72.7259 17.2299 73.0515 17.0038C73.3862 16.7686 73.5535 16.4385 73.5535 16.0134V15.9456C73.5535 15.2492 73.3138 14.711 72.8345 14.3312C72.3551 13.9513 71.7085 13.7614 70.8945 13.7614C70.0172 13.7614 69.3117 13.9513 68.7781 14.3312C68.2445 14.711 67.9053 15.2356 67.7606 15.9049L61.6422 15.6878C61.8231 14.4216 62.2889 13.2911 63.0395 12.2962C63.7992 11.2923 64.8393 10.5055 66.1598 9.93568C67.4893 9.35684 69.0856 9.06743 70.9487 9.06743C72.2782 9.06743 73.5037 9.2257 74.6252 9.54225C75.7467 9.84975 76.7235 10.302 77.5556 10.8989C78.3876 11.4868 79.0298 12.2103 79.482 13.0695C79.9433 13.9287 80.1739 14.91 80.1739 16.0134V30.1767H73.9333V27.2735H73.7705C73.3997 27.979 72.9249 28.5759 72.3461 29.0643C71.7763 29.5527 71.1025 29.919 70.3247 30.1632C69.5559 30.4074 68.6877 30.5295 67.7199 30.5295ZM69.7685 26.1882C70.483 26.1882 71.1251 26.0435 71.6949 25.7541C72.2737 25.4647 72.735 25.0667 73.0787 24.5603C73.4223 24.0447 73.5942 23.4478 73.5942 22.7695V20.7888C73.4043 20.8883 73.1736 20.9787 72.9023 21.0601C72.64 21.1415 72.3506 21.2184 72.034 21.2908C71.7175 21.3631 71.3919 21.4264 71.0573 21.4807C70.7226 21.5349 70.4016 21.5847 70.0941 21.6299C69.47 21.7294 68.9364 21.8832 68.4932 22.0912C68.0591 22.2992 67.7245 22.5705 67.4893 22.9052C67.2632 23.2307 67.1501 23.6196 67.1501 24.0719C67.1501 24.7592 67.3943 25.2838 67.8827 25.6456C68.3802 26.0073 69.0087 26.1882 69.7685 26.1882Z" fill="#1C51FE"/>
<path d="M82.1833 30.1767V26.3917L91.8426 14.6296V14.494H82.5225V9.33875H99.7518V13.4901L90.798 24.8858V25.0215H100.077V30.1767H82.1833Z" fill="#1C51FE"/>
<path d="M102.263 30.1767V9.33875H108.897V30.1767H102.263ZM105.587 6.91037C104.655 6.91037 103.855 6.60286 103.186 5.98785C102.516 5.3638 102.182 4.61312 102.182 3.73583C102.182 2.86758 102.516 2.12595 103.186 1.51094C103.855 0.886887 104.655 0.57486 105.587 0.57486C106.528 0.57486 107.328 0.886887 107.988 1.51094C108.658 2.12595 108.992 2.86758 108.992 3.73583C108.992 4.61312 108.658 5.3638 107.988 5.98785C107.328 6.60286 106.528 6.91037 105.587 6.91037Z" fill="#1C51FE"/>
<path d="M117.653 18.2926V30.1767H111.019V9.33875H117.327V13.1645H117.558C118.019 11.8892 118.806 10.8898 119.918 10.1663C121.031 9.43372 122.356 9.06743 123.893 9.06743C125.358 9.06743 126.629 9.39754 127.705 10.0578C128.791 10.709 129.632 11.6224 130.229 12.7982C130.835 13.9649 131.133 15.3306 131.124 16.8952V30.1767H124.49V18.1976C124.499 17.0399 124.205 16.1355 123.608 15.4843C123.02 14.8331 122.202 14.5076 121.153 14.5076C120.456 14.5076 119.841 14.6613 119.308 14.9688C118.783 15.2673 118.376 15.6969 118.087 16.2576C117.806 16.8184 117.662 17.4967 117.653 18.2926Z" fill="#1C51FE"/>
<path d="M142.844 38.4251C140.863 38.4251 139.167 38.1493 137.756 37.5976C136.345 37.0459 135.237 36.2907 134.432 35.332C133.627 34.3733 133.144 33.288 132.981 32.076L139.262 31.7233C139.38 32.1484 139.597 32.5192 139.913 32.8358C140.239 33.1523 140.659 33.3965 141.175 33.5683C141.699 33.7402 142.314 33.8261 143.02 33.8261C144.132 33.8261 145.05 33.5548 145.774 33.0121C146.507 32.4785 146.873 31.5424 146.873 30.2039V26.5409H146.642C146.38 27.1831 145.982 27.7574 145.448 28.2639C144.915 28.7704 144.25 29.1683 143.454 29.4577C142.667 29.7471 141.763 29.8918 140.741 29.8918C139.221 29.8918 137.829 29.5391 136.562 28.8337C135.305 28.1192 134.297 27.0158 133.537 25.5235C132.786 24.0221 132.411 22.0912 132.411 19.7306C132.411 17.2977 132.8 15.2944 133.578 13.7207C134.356 12.138 135.373 10.9667 136.63 10.207C137.896 9.44729 139.258 9.06743 140.714 9.06743C141.808 9.06743 142.744 9.25736 143.522 9.63722C144.309 10.008 144.955 10.4874 145.462 11.0753C145.968 11.6631 146.353 12.2736 146.615 12.9067H146.805V9.33875H153.412V30.2581C153.412 32.0218 152.969 33.5096 152.082 34.7215C151.196 35.9334 149.957 36.8514 148.365 37.4755C146.773 38.1086 144.933 38.4251 142.844 38.4251ZM143.047 25.0622C143.852 25.0622 144.539 24.8497 145.109 24.4246C145.679 23.9995 146.118 23.389 146.425 22.5931C146.733 21.7972 146.886 20.8431 146.886 19.7306C146.886 18.6001 146.733 17.6278 146.425 16.8138C146.127 15.9908 145.688 15.3577 145.109 14.9145C144.539 14.4714 143.852 14.2498 143.047 14.2498C142.224 14.2498 141.528 14.4759 140.958 14.9281C140.388 15.3803 139.954 16.0179 139.655 16.841C139.366 17.655 139.221 18.6182 139.221 19.7306C139.221 20.8431 139.371 21.7972 139.669 22.5931C139.968 23.389 140.397 23.9995 140.958 24.4246C141.528 24.8497 142.224 25.0622 143.047 25.0622Z" fill="#1C51FE"/>
<path d="M177.058 5.608V33.392H171.36L160.304 17.3565H160.127V33.392H153.412V5.608H159.191L170.126 21.6164H170.356V5.608H177.058Z" fill="#B902A7"/>
<path d="M179.179 33.392V5.608H198.145V11.0617H185.895V16.7596H196.938V22.2268H185.895V33.392H179.179Z" fill="#B902A7"/>
<path d="M198.517 11.0617V5.608H222V11.0617H213.575V33.392H206.955V11.0617H198.517Z" fill="#B902A7"/>
</svg>
