<svg width="141" height="25" viewBox="0 0 141 25" fill="none" xmlns="http://www.w3.org/2000/svg">
<path d="M29.0067 6.97878C23.92 6.97878 19.9475 10.8384 19.9475 16.004C19.9475 21.1695 23.8208 24.9942 29.0067 24.9942C34.1925 24.9942 38.13 21.1054 38.13 15.9748C38.13 10.8734 34.2567 6.97878 29.0067 6.97878ZM29.0417 21.2745C26.1425 21.2745 24.025 19.024 24.025 16.004C24.025 12.9548 26.1075 10.7043 29.0067 10.7043C31.935 10.7043 34.0583 12.9897 34.0583 16.0098C34.0583 19.024 31.935 21.2745 29.0417 21.2745ZM39.2442 10.9083H41.77V24.6677H45.8125V7.3111H39.2442V10.9083ZM9.77417 10.7043C11.8975 10.7043 13.5833 12.0103 14.2192 13.9576H18.5008C17.725 9.80061 14.2892 6.97878 9.80917 6.97878C4.7225 6.97878 0.75 10.8384 0.75 16.004C0.75 21.1754 4.62333 25 9.80917 25C14.1842 25 17.69 22.1782 18.4658 17.9862H14.2192C13.9441 18.9404 13.3641 19.7783 12.5678 20.3721C11.7715 20.9658 10.8026 21.2828 9.80917 21.2745C6.88083 21.2745 4.82167 19.024 4.82167 16.004C4.82167 12.9548 6.84583 10.7043 9.78 10.7043H9.77417ZM116.028 14.3307L113.065 13.8934C111.653 13.6894 110.644 13.2229 110.644 12.1152C110.644 10.9083 111.957 10.3078 113.736 10.3078C115.696 10.3078 116.944 11.1416 117.207 12.5175H121.115C120.678 9.02519 117.982 6.97878 113.841 6.97878C109.565 6.97878 106.736 9.16511 106.736 12.2493C106.736 15.1994 108.585 16.9135 112.324 17.4499L115.288 17.8871C116.74 18.0854 117.545 18.6567 117.545 19.7295C117.545 21.1054 116.133 21.6768 114.179 21.6768C111.787 21.6768 110.44 20.7031 110.236 19.2281H106.263C106.637 22.6154 109.297 25 114.138 25C118.554 25 121.488 22.9827 121.488 19.5313C121.488 16.4412 119.365 14.8321 116.028 14.3307ZM43.7883 0.169078C43.4484 0.15713 43.1097 0.214551 42.7928 0.337834C42.4758 0.461116 42.1873 0.647668 41.945 0.886108C41.7026 1.12455 41.5113 1.40986 41.383 1.72464C41.2546 2.03941 41.1918 2.37703 41.1983 2.71688C41.1983 4.19776 42.3067 5.27052 43.7883 5.27052C44.1292 5.28332 44.4691 5.22633 44.7871 5.10306C45.1051 4.97978 45.3946 4.79283 45.6377 4.55367C45.8808 4.31452 46.0724 4.02822 46.2008 3.71236C46.3292 3.39649 46.3916 3.05773 46.3842 2.71688C46.3908 2.37652 46.3278 2.0384 46.199 1.72322C46.0703 1.40805 45.8786 1.12245 45.6356 0.883928C45.3925 0.645404 45.1034 0.458973 44.7857 0.336055C44.4681 0.213136 44.1287 0.156318 43.7883 0.169078ZM103.096 13.2579C103.096 9.49744 100.809 6.98461 95.9558 6.98461C91.3767 6.98461 88.8158 9.29921 88.3142 12.8556H92.3217C92.5258 11.4797 93.605 10.337 95.8917 10.337C97.945 10.337 98.9542 11.2407 98.9542 12.3484C98.9542 13.7943 97.105 14.1616 94.8125 14.3948C91.715 14.733 87.8708 15.8057 87.8708 19.8344C87.8708 22.9536 90.2042 24.965 93.9025 24.965C96.8017 24.965 98.6217 23.7582 99.5317 21.8458C99.6658 23.5541 100.943 24.6618 102.728 24.6618H105.085V21.0704H103.102V13.2579H103.096ZM99.1292 17.6189C99.1292 19.9335 97.105 21.6418 94.6433 21.6418C93.1267 21.6418 91.8433 21.0005 91.8433 19.6595C91.8433 17.9513 93.9025 17.4848 95.7867 17.2808C97.6067 17.1175 98.6158 16.7153 99.1233 15.9398L99.1292 17.6189ZM77.6683 6.97878C75.4167 6.97878 73.5267 7.92327 72.185 9.49743V0H68.1425V24.6618H72.1092V22.3822C73.4625 24.0264 75.3758 25 77.6683 25C82.5217 25 86.1908 21.1754 86.1908 16.004C86.1908 10.8384 82.4575 6.97878 77.6742 6.97878H77.6683ZM77.0675 21.2745C74.1683 21.2745 72.0508 19.024 72.0508 16.004C72.0508 12.9897 74.2033 10.7043 77.0967 10.7043C80.0308 10.7043 82.0842 12.9548 82.0842 16.0098C82.0842 19.024 79.9608 21.2745 77.0675 21.2745ZM58.4767 6.97878C55.8517 6.97878 54.1308 8.05154 53.1158 9.56157V7.31693H49.1083V24.6618H53.1508V15.2344C53.1508 12.5816 54.8367 10.7043 57.3275 10.7043C59.6492 10.7043 61.1017 12.3484 61.1017 14.7271V24.6618H65.1383V14.4298C65.1383 10.0688 62.8867 6.97878 58.4767 6.97878ZM140.75 15.4326C140.75 10.4711 137.11 6.97878 132.233 6.97878C127.042 6.97878 123.238 10.8734 123.238 16.004C123.238 21.4086 127.31 25 132.298 25C136.509 25 139.805 22.5163 140.651 18.9949H136.439C135.833 20.534 134.351 21.4086 132.362 21.4086C129.766 21.4086 127.812 19.7994 127.38 16.9776H140.75V15.4384V15.4326ZM127.613 14.0916C128.255 11.6779 130.075 10.5061 132.163 10.5061C134.45 10.5061 136.206 11.812 136.608 14.0916H127.613Z" fill="#A9A9A9"/>
</svg>
